HIERARCHY
ROOT Pelvis
{
	OFFSET 0.000000 0.000000 0.000000
	CHANNELS 6 Xposition Yposition Zposition Zrotation Yrotation Xrotation 
	JOINT Left_hip
	{
		OFFSET 0.076090 -0.089427 -0.010735
		CHANNELS 3 Zrotation Yrotation Xrotation
		JOINT Left_knee
		{
			OFFSET 0.030200 -0.359518 -0.003501
			CHANNELS 3 Zrotation Yrotation Xrotation
			JOINT Left_ankle
			{
				OFFSET -0.011005 -0.371022 -0.045888
				CHANNELS 3 Zrotation Yrotation Xrotation
				JOINT Left_foot
				{
					OFFSET 0.023930 -0.052103 0.111084
					CHANNELS 3 Zrotation Yrotation Xrotation
					End Site
					{
						OFFSET 0.000000 0.000000 0.000000
					}
				}
			}
		}
	}
	JOINT Right_hip
	{
		OFFSET -0.073836 -0.088112 -0.007709
		CHANNELS 3 Zrotation Yrotation Xrotation
		JOINT Right_knee
		{
			OFFSET -0.035715 -0.367809 -0.006536
			CHANNELS 3 Zrotation Yrotation Xrotation
			JOINT Right_ankle
			{
				OFFSET 0.013718 -0.371958 -0.043815
				CHANNELS 3 Zrotation Yrotation Xrotation
				JOINT Right_foot
				{
					OFFSET -0.021936 -0.046387 0.114542
					CHANNELS 3 Zrotation Yrotation Xrotation
					End Site
					{
						OFFSET 0.000000 0.000000 0.000000
					}
				}
			}
		}
	}
	JOINT Spine1
	{
		OFFSET -0.001865 0.102064 -0.019455
		CHANNELS 3 Zrotation Yrotation Xrotation
		JOINT Spine2
		{
			OFFSET 0.003082 0.129260 -0.001938
			CHANNELS 3 Zrotation Yrotation Xrotation
			JOINT Spine3
			{
				OFFSET 0.001104 0.048093 0.026561
				CHANNELS 3 Zrotation Yrotation Xrotation
				JOINT Neck
				{
					OFFSET -0.002010 0.204222 -0.047183
					CHANNELS 3 Zrotation Yrotation Xrotation
					JOINT Head
					{
						OFFSET 0.005050 0.063649 0.048489
						CHANNELS 3 Zrotation Yrotation Xrotation
						End Site
						{
							OFFSET 0.000000 0.000000 0.000000
						}
					}
				}
				JOINT Left_collar
				{
					OFFSET 0.072979 0.114065 -0.031633
					CHANNELS 3 Zrotation Yrotation Xrotation
					JOINT Left_shoulder
					{
						OFFSET 0.083419 0.032092 -0.006530
						CHANNELS 3 Zrotation Yrotation Xrotation
						JOINT Left_elbow
						{
							OFFSET 0.239393 -0.012014 -0.025060
							CHANNELS 3 Zrotation Yrotation Xrotation
							JOINT Left_wrist
							{
								OFFSET 0.227297 0.008116 0.000384
								CHANNELS 3 Zrotation Yrotation Xrotation
								JOINT Left_palm
								{
									OFFSET 0.074607 -0.009248 -0.012277
									CHANNELS 3 Zrotation Yrotation Xrotation
									End Site
									{
										OFFSET 0.000000 0.000000 0.000000
									}
								}
							}
						}
					}
				}
				JOINT Right_collar
				{
					OFFSET -0.074980 0.111880 -0.037894
					CHANNELS 3 Zrotation Yrotation Xrotation
					JOINT Right_shoulder
					{
						OFFSET -0.087565 0.034353 -0.009323
						CHANNELS 3 Zrotation Yrotation Xrotation
						JOINT Right_elbow
						{
							OFFSET -0.236838 -0.013719 -0.019794
							CHANNELS 3 Zrotation Yrotation Xrotation
							JOINT Right_wrist
							{
								OFFSET -0.235053 0.006433 -0.003853
								CHANNELS 3 Zrotation Yrotation Xrotation
								JOINT Right_palm
								{
									OFFSET -0.075499 -0.006894 -0.009792
									CHANNELS 3 Zrotation Yrotation Xrotation
									End Site
									{
										OFFSET 0.000000 0.000000 0.000000
									}
								}
							}
						}
					}
				}
			}
		}
	}
}
MOTION
Frames: 13
Frame Time: 0.100000
0.000000 0.000000 0.000000 173.912656 29.339211 -13.689014 2.556588 0.918536 5.064715 -2.638878 -2.272413 -7.114842 -3.979850 5.270684 -0.743360 7.758619 6.854298 -6.221485 -0.294686 -2.954912 5.856655 3.812693 -3.936196 -4.897722 6.374805 -4.654866 -5.363546 -8.736543 -2.167182 4.219260 1.412140 0.570647 1.254557 3.805525 -4.209692 3.635577 2.990793 -1.798709 -1.828425 -1.196209 -10.243401 -7.088436 -0.562779 -14.612233 2.676798 -22.386722 -5.955823 4.267839 -59.408029 -10.791409 19.698554 41.327884 -80.062921 -10.232283 -2.231422 -9.670735 1.955260 -13.207532 -2.707397 -11.232657 21.541861 10.023231 2.227141 50.801881 6.561913 17.261222 -60.213124 73.240493 -35.485484 4.853982 7.625514 -0.599759 10.028084 6.846963 -5.668395 
0.002243 0.001483 0.000467 173.912671 28.818559 -14.404662 2.972195 1.774666 5.913527 -2.810109 -3.630632 -7.256955 -2.875585 7.036666 -1.760044 4.826420 3.088877 -3.406445 -0.114459 -3.143182 6.431685 4.010406 -1.758990 -4.938905 4.549300 -6.832149 -6.331345 -5.241587 0.862096 6.868922 1.212315 1.065006 2.028739 3.480255 -3.694125 2.505579 2.367329 -1.355951 -1.996399 -1.336920 -8.555398 -6.290000 -1.957127 -13.862587 8.267718 -27.907677 -9.869955 6.151415 -54.806147 -13.657066 19.328799 4.084359 -40.750746 15.818082 1.759210 -11.437234 4.244052 -12.089531 -2.815495 -11.839896 28.371297 13.358381 6.017363 43.447621 9.758173 14.785385 -10.252281 36.104907 1.024900 1.245711 7.482491 -1.889967 9.324887 5.806218 -5.706236 
0.001302 0.001532 0.005315 173.735528 29.375000 -12.420483 3.122856 2.564166 2.945161 -2.539714 -6.008690 -5.797364 -3.082422 8.362464 -2.889825 4.923335 4.797612 -3.541848 1.068659 -2.989521 4.509222 2.880201 1.552576 -5.560960 2.079171 -11.485202 -7.454298 -2.023762 4.130993 9.584154 0.852142 1.638823 0.061673 3.540693 -4.012978 4.004622 1.197711 -0.284842 -5.315532 -1.506298 -9.013223 -1.604077 -0.492496 -11.646328 7.765404 -28.827091 -8.161424 3.933439 -57.144153 -11.071173 19.914936 3.838113 -5.742384 3.283113 -3.138987 -2.625591 9.424944 -13.874194 -8.823274 -13.499795 29.401410 12.599187 5.473878 46.212636 5.752127 16.546121 -5.487011 0.682165 -3.083613 5.301430 0.204846 4.204156 14.370762 9.384929 -6.834620 
0.000466 0.001546 0.011985 173.757975 29.869193 -13.108114 3.233064 2.553514 4.382545 -2.470683 -7.555232 -6.286130 -3.538182 10.013703 -2.749008 5.075053 3.494095 -4.349439 1.154561 -3.140474 5.937926 2.798899 2.407694 -5.821694 2.100995 -12.747636 -7.653789 -1.815772 4.051043 8.744059 0.800954 1.264281 0.900600 2.797169 -3.388699 4.071669 0.607959 -1.047679 -2.815408 0.021699 -8.688383 -4.149557 0.111236 -9.792530 7.279502 -29.616414 2.087013 2.465036 -51.218036 -2.425248 15.960652 4.723372 -6.659977 5.579467 -5.009397 -5.052081 10.210539 -11.027284 -7.243441 -12.152133 30.010518 2.825293 3.604751 43.932461 -3.269269 15.799066 -5.408625 4.197467 1.563298 4.758936 1.686930 7.299173 12.518700 8.420804 -4.502730 
0.002140 0.000296 0.017119 173.803521 30.124973 -13.858781 3.385701 2.510204 5.829140 -2.336910 -8.454314 -6.863050 -3.550326 11.499864 -2.580997 4.655633 1.665954 -4.840810 1.326326 -2.943956 7.328572 2.820433 2.180788 -6.133462 1.517374 -12.769869 -7.628442 -0.616035 2.104072 8.579603 0.796426 0.730603 1.996589 2.032569 -3.220611 3.503866 0.753878 -1.683272 -0.560506 -0.718100 -7.623562 -3.607701 0.993171 -6.756633 6.300495 -28.236186 7.989824 3.202788 -48.714426 4.001995 12.186681 5.775969 -5.083313 2.114809 -5.843873 -8.504066 4.563459 -9.190692 -5.089856 -11.552433 28.432337 -2.543739 3.905241 44.895946 -10.108776 14.249086 -6.218962 7.137367 -0.449130 3.703830 5.469575 0.041658 10.397788 6.435118 -1.971595 
0.006000 -0.000831 0.020104 173.923892 29.613120 -13.753307 3.653218 2.875865 5.886519 -2.273155 -8.541982 -6.758509 -3.810764 12.084266 -2.463773 5.044609 1.293071 -5.471253 1.588258 -2.984447 7.061645 2.776714 2.947271 -5.657220 2.727803 -13.282038 -7.982623 -2.622790 3.359958 8.065520 0.984062 0.445081 2.455963 1.880560 -3.220949 2.435055 0.705555 -1.808956 0.809431 -1.386873 -5.266025 -3.178543 0.045232 -4.049525 8.009173 -27.148921 10.285433 2.700389 -49.975330 5.311869 10.996852 6.363492 0.824871 1.106433 -5.399406 -6.563777 4.122050 -9.506572 -5.472372 -11.542162 27.901589 -4.958458 2.873561 46.458294 -10.151997 13.166073 -6.294704 3.274061 -2.086144 4.195070 3.922629 -0.195620 11.241971 6.761841 -2.218426 
0.010288 -0.000288 0.022239 174.481292 28.684049 -12.873257 3.535438 3.053568 4.973705 -2.235016 -7.846715 -6.220322 -3.653539 11.829547 -2.633115 5.168639 1.889728 -5.320561 1.532718 -2.891917 6.033127 2.810082 3.438730 -5.287303 3.415419 -13.529805 -8.400710 -3.561244 5.441203 8.109354 1.096174 0.711942 1.721168 2.165476 -3.589283 3.410217 0.523596 -1.458767 -0.237798 -2.390773 -2.312504 -2.238687 -1.287780 -2.456387 10.898335 -27.748998 6.823939 2.463434 -51.192295 2.158533 12.368240 3.315924 5.987474 0.469568 -6.803586 -4.527818 6.210832 -10.778167 -6.908172 -11.973233 29.120380 -1.915235 3.282133 46.420922 -6.414383 14.476341 -4.671214 -0.019309 -2.104168 6.134990 2.532125 3.281406 12.943145 7.873060 -3.504348 
0.015394 0.000045 0.022952 175.194077 28.110448 -12.209372 3.161794 2.887113 3.328178 -2.263360 -6.415779 -3.984945 -3.397784 10.670425 -3.326362 5.660453 3.162884 -4.906477 1.285627 -2.852748 5.186729 2.945550 3.213817 -4.794271 3.936924 -13.335946 -8.773821 -4.668450 7.587063 8.227274 1.332900 1.217952 1.101491 2.426648 -4.165418 4.598615 0.316830 -1.025879 -1.907648 -3.422106 1.058047 -0.674394 -2.679423 -1.417582 14.400139 -27.982783 -0.526454 2.499768 -52.374573 -5.496260 14.057726 1.507341 4.716344 -1.502252 -6.459117 -2.609983 7.087305 -12.747530 -8.313054 -12.238901 29.474468 4.079933 4.110736 45.679932 0.810094 14.776225 -4.830248 -0.087675 -5.425725 6.849569 1.316607 4.663331 14.736609 9.011939 -5.279445 
0.018825 0.001449 0.020138 175.432004 28.625826 -12.631213 2.533885 1.574337 -2.168675 -1.943995 -4.418213 7.060859 -3.142638 9.395571 -6.408347 6.504754 4.208046 -5.276308 1.139492 -3.009404 5.811195 3.232908 2.894013 -4.972833 3.242397 -13.008212 -9.286233 -5.204547 8.774841 8.787334 2.220684 2.228749 2.554283 2.388640 -5.120032 4.901835 -0.012885 -0.595159 -3.972692 -4.269278 3.267354 0.416653 -3.495328 -0.387932 18.207949 -28.191552 -9.199054 2.423505 -52.102532 -14.384572 15.393031 4.545258 -3.554191 -4.030025 -0.843166 -1.813573 7.330976 -14.578692 -9.077260 -10.857802 29.194465 10.855068 4.820074 43.713560 8.042606 13.800591 -7.682840 5.308864 -9.439944 3.642915 1.651836 5.497716 16.015943 10.019358 -5.995962 
0.019168 0.006851 0.015881 173.670216 30.730251 -14.407682 3.177281 -1.888837 -14.348675 -2.022565 -0.408830 28.134133 -3.211905 8.817715 -9.037867 8.315950 5.787975 -7.104209 2.562778 -2.838703 7.023359 3.284794 2.188851 -4.854679 0.405805 -13.823382 -10.435558 -4.203735 8.968709 10.239650 3.758581 4.365965 5.061290 3.249826 -6.346005 5.575214 0.474827 0.029964 -5.629535 -5.069243 3.488658 1.549387 -3.358929 -1.838278 18.011209 -26.639534 -16.850312 0.949693 -54.528517 -23.324105 16.502944 9.056043 -15.057001 -9.554520 1.362801 -2.757948 5.516298 -16.488300 -9.225964 -7.746423 26.908604 16.659119 4.956875 40.422211 12.149533 11.302621 -12.483972 14.381997 -15.415302 2.012785 4.175967 3.738580 17.346747 10.199974 -5.139852 
0.012606 0.001139 0.021438 174.528217 30.521663 -13.023304 1.553583 -1.483189 -19.672971 -1.992504 2.799155 22.980839 -2.799485 8.449573 -6.010284 8.508790 6.001027 -6.036169 2.061458 -3.060791 6.465428 2.409081 1.718382 -4.313400 1.251218 -13.310052 -10.175945 -4.583066 8.982093 10.753478 3.618567 5.634660 6.095445 3.087525 -5.955366 4.195816 0.534831 1.160795 -5.931001 -4.827563 2.041714 2.428171 -2.479224 -2.949766 18.988390 -23.929154 -19.345996 -0.760132 -58.478646 -26.298802 19.810400 10.388029 -17.429134 -8.766804 2.974885 -3.074315 5.805127 -16.827589 -9.540618 -7.220066 24.115599 19.240667 4.485134 40.231750 16.122738 11.109358 -14.023195 15.139646 -17.444850 0.712196 4.505850 2.699736 17.021011 10.526592 -6.212989 
-0.005590 -0.002192 0.038065 175.797311 27.473581 -12.542658 0.602225 -2.066034 -17.728433 -2.921795 -0.815526 9.711416 -2.655051 7.146287 -2.501178 7.801985 5.560099 -4.258018 0.723295 -3.072970 8.048323 2.088310 3.326889 -3.829007 3.684980 -12.346327 -10.914385 -7.248792 9.283248 9.120341 4.114450 6.028823 8.628628 1.720583 -4.998137 3.346995 0.100405 1.915921 -4.515693 -4.281672 0.132026 -2.353835 -0.822483 -3.564322 16.430263 -25.320647 -17.864787 0.827183 -55.700287 -21.234585 16.547339 8.672774 -12.668683 -7.885203 2.795044 -2.065084 3.769850 -15.228915 -8.893316 -7.594886 23.677075 19.890484 4.483175 40.798387 17.105321 11.053622 -13.390933 14.545237 -16.439060 0.544388 3.886014 2.529029 14.922214 9.989670 -6.591707 
-0.031902 -0.001202 0.064522 174.691591 24.678477 -13.599343 1.317814 -0.365555 -15.169567 -3.130834 -0.679733 10.058424 -2.914725 8.231610 0.298363 7.850236 5.062104 -4.078509 1.610949 -2.711179 8.591129 1.477636 4.748697 1.245140 4.369623 -12.771509 -14.111930 -9.210850 9.865970 6.797071 4.312007 5.254214 10.674592 2.224990 -5.163797 4.842125 0.761782 1.418971 -3.038549 -2.163158 -1.338710 -8.122136 0.838511 -4.867606 10.239033 -27.797987 -14.823583 3.850126 -52.746059 -12.373532 12.868075 3.840327 -4.022032 -6.221220 -1.129666 0.054026 3.580559 -14.711769 -9.268052 -9.607753 25.177295 18.850482 4.318402 40.213271 13.321670 10.666701 -12.116494 12.208936 -14.803797 1.372585 2.897412 4.063997 14.947154 9.596550 -6.818768 
